<svg xmlns="http://www.w3.org/2000/svg" xmlns:xlink="http://www.w3.org/1999/xlink" width="800" zoomAndPan="magnify" viewBox="0 0 600 599.999999" height="800" preserveAspectRatio="xMidYMid meet" version="1.0"><defs><clipPath id="66201f31d2"><path d="M 20.6875 474.171875 L 99.4375 474.171875 L 99.4375 552.921875 L 20.6875 552.921875 Z M 20.6875 474.171875 " clip-rule="nonzero"/></clipPath><clipPath id="c089816258"><path d="M 194.4375 60 L 273.1875 60 L 273.1875 138.75 L 194.4375 138.75 Z M 194.4375 60 " clip-rule="nonzero"/></clipPath><clipPath id="ebc2bf8af4"><path d="M 365.054688 474.171875 L 443.804688 474.171875 L 443.804688 552.921875 L 365.054688 552.921875 Z M 365.054688 474.171875 " clip-rule="nonzero"/></clipPath><clipPath id="235f0cb525"><path d="M 66 151.210938 L 109 151.210938 L 109 194 L 66 194 Z M 66 151.210938 " clip-rule="nonzero"/></clipPath><clipPath id="3e6f3e705b"><path d="M 66 406 L 109 406 L 109 448.960938 L 66 448.960938 Z M 66 406 " clip-rule="nonzero"/></clipPath><clipPath id="318f65ea22"><path d="M 23.824219 406 L 67 406 L 67 448.960938 L 23.824219 448.960938 Z M 23.824219 406 " clip-rule="nonzero"/></clipPath><clipPath id="fc203580d2"><path d="M 23.824219 151.210938 L 67 151.210938 L 67 194 L 23.824219 194 Z M 23.824219 151.210938 " clip-rule="nonzero"/></clipPath><clipPath id="942df1d677"><path d="M 236 151.210938 L 279 151.210938 L 279 194 L 236 194 Z M 236 151.210938 " clip-rule="nonzero"/></clipPath><clipPath id="b8a92f5253"><path d="M 236 406 L 279 406 L 279 448.960938 L 236 448.960938 Z M 236 406 " clip-rule="nonzero"/></clipPath><clipPath id="6ff02c95e1"><path d="M 193 406 L 237 406 L 237 448.960938 L 193 448.960938 Z M 193 406 " clip-rule="nonzero"/></clipPath><clipPath id="13e66ca993"><path d="M 193 151.210938 L 237 151.210938 L 237 194 L 193 194 Z M 193 151.210938 " clip-rule="nonzero"/></clipPath><clipPath id="44eaa22603"><path d="M 405 151.210938 L 449 151.210938 L 449 194 L 405 194 Z M 405 151.210938 " clip-rule="nonzero"/></clipPath><clipPath id="8b610260d4"><path d="M 405 406 L 449 406 L 449 448.960938 L 405 448.960938 Z M 405 406 " clip-rule="nonzero"/></clipPath><clipPath id="ad54eacf2d"><path d="M 363 406 L 406 406 L 406 448.960938 L 363 448.960938 Z M 363 406 " clip-rule="nonzero"/></clipPath><clipPath id="da348947c1"><path d="M 533 278 L 575.824219 278 L 575.824219 322 L 533 322 Z M 533 278 " clip-rule="nonzero"/></clipPath><clipPath id="ffe906ae49"><path d="M 363 151.210938 L 406 151.210938 L 406 194 L 363 194 Z M 363 151.210938 " clip-rule="nonzero"/></clipPath></defs><g clip-path="url(#66201f31d2)"><path fill="#ffde59" d="M 99.4375 519.171875 L 76.9375 519.171875 L 76.9375 530.421875 L 65.6875 530.421875 L 65.6875 552.921875 L 54.4375 552.921875 L 54.4375 530.421875 L 43.1875 530.421875 L 43.1875 519.171875 L 20.6875 519.171875 L 20.6875 507.921875 L 43.1875 507.921875 L 43.1875 496.671875 L 54.4375 496.671875 L 54.4375 474.171875 L 65.6875 474.171875 L 65.6875 496.671875 L 76.9375 496.671875 L 76.9375 507.921875 L 99.4375 507.921875 Z M 99.4375 519.171875 " fill-opacity="1" fill-rule="nonzero"/></g><g clip-path="url(#c089816258)"><path fill="#ffde59" d="M 273.1875 105 L 250.6875 105 L 250.6875 116.25 L 239.4375 116.25 L 239.4375 138.75 L 228.1875 138.75 L 228.1875 116.25 L 216.9375 116.25 L 216.9375 105 L 194.4375 105 L 194.4375 93.75 L 216.9375 93.75 L 216.9375 82.5 L 228.1875 82.5 L 228.1875 60 L 239.4375 60 L 239.4375 82.5 L 250.6875 82.5 L 250.6875 93.75 L 273.1875 93.75 Z M 273.1875 105 " fill-opacity="1" fill-rule="nonzero"/></g><g clip-path="url(#ebc2bf8af4)"><path fill="#ffde59" d="M 443.804688 519.171875 L 421.304688 519.171875 L 421.304688 530.421875 L 410.054688 530.421875 L 410.054688 552.921875 L 398.804688 552.921875 L 398.804688 530.421875 L 387.554688 530.421875 L 387.554688 519.171875 L 365.054688 519.171875 L 365.054688 507.921875 L 387.554688 507.921875 L 387.554688 496.671875 L 398.804688 496.671875 L 398.804688 474.171875 L 410.054688 474.171875 L 410.054688 496.671875 L 421.304688 496.671875 L 421.304688 507.921875 L 443.804688 507.921875 Z M 443.804688 519.171875 " fill-opacity="1" fill-rule="nonzero"/></g><g clip-path="url(#235f0cb525)"><path fill="#151515" d="M 66.316406 151.3125 L 108.808594 151.3125 L 108.808594 193.855469 L 66.316406 193.855469 Z M 66.316406 151.3125 " fill-opacity="1" fill-rule="nonzero"/></g><path fill="#151515" d="M 108.808594 193.722656 L 151.300781 193.722656 L 151.300781 236.269531 L 108.808594 236.269531 Z M 108.808594 193.722656 " fill-opacity="1" fill-rule="nonzero"/><path fill="#151515" d="M 66.316406 193.722656 L 108.808594 193.722656 L 108.808594 236.269531 L 66.316406 236.269531 Z M 66.316406 193.722656 " fill-opacity="1" fill-rule="nonzero"/><path fill="#151515" d="M 108.808594 236.269531 L 151.300781 236.269531 L 151.300781 278.8125 L 108.808594 278.8125 Z M 108.808594 236.269531 " fill-opacity="1" fill-rule="nonzero"/><path fill="#151515" d="M 151.300781 236.269531 L 193.792969 236.269531 L 193.792969 278.8125 L 151.300781 278.8125 Z M 151.300781 236.269531 " fill-opacity="1" fill-rule="nonzero"/><path fill="#151515" d="M 151.300781 321.222656 L 193.792969 321.222656 L 193.792969 363.769531 L 151.300781 363.769531 Z M 151.300781 321.222656 " fill-opacity="1" fill-rule="nonzero"/><path fill="#151515" d="M 151.300781 278.8125 L 193.792969 278.8125 L 193.792969 321.355469 L 151.300781 321.355469 Z M 151.300781 278.8125 " fill-opacity="1" fill-rule="nonzero"/><path fill="#151515" d="M 108.808594 363.769531 L 151.300781 363.769531 L 151.300781 406.3125 L 108.808594 406.3125 Z M 108.808594 363.769531 " fill-opacity="1" fill-rule="nonzero"/><path fill="#151515" d="M 108.808594 321.222656 L 151.300781 321.222656 L 151.300781 363.769531 L 108.808594 363.769531 Z M 108.808594 321.222656 " fill-opacity="1" fill-rule="nonzero"/><g clip-path="url(#3e6f3e705b)"><path fill="#151515" d="M 66.316406 406.3125 L 108.808594 406.3125 L 108.808594 448.855469 L 66.316406 448.855469 Z M 66.316406 406.3125 " fill-opacity="1" fill-rule="nonzero"/></g><path fill="#151515" d="M 66.316406 363.769531 L 108.808594 363.769531 L 108.808594 406.3125 L 66.316406 406.3125 Z M 66.316406 363.769531 " fill-opacity="1" fill-rule="nonzero"/><g clip-path="url(#318f65ea22)"><path fill="#151515" d="M 23.824219 406.3125 L 66.316406 406.3125 L 66.316406 448.855469 L 23.824219 448.855469 Z M 23.824219 406.3125 " fill-opacity="1" fill-rule="nonzero"/></g><path fill="#151515" d="M 193.660156 278.8125 L 236.152344 278.8125 L 236.152344 321.355469 L 193.660156 321.355469 Z M 193.660156 278.8125 " fill-opacity="1" fill-rule="nonzero"/><g clip-path="url(#fc203580d2)"><path fill="#151515" d="M 23.824219 151.3125 L 66.316406 151.3125 L 66.316406 193.855469 L 23.824219 193.855469 Z M 23.824219 151.3125 " fill-opacity="1" fill-rule="nonzero"/></g><g clip-path="url(#942df1d677)"><path fill="#151515" d="M 236.152344 151.3125 L 278.644531 151.3125 L 278.644531 193.855469 L 236.152344 193.855469 Z M 236.152344 151.3125 " fill-opacity="1" fill-rule="nonzero"/></g><path fill="#151515" d="M 278.644531 193.722656 L 321.136719 193.722656 L 321.136719 236.269531 L 278.644531 236.269531 Z M 278.644531 193.722656 " fill-opacity="1" fill-rule="nonzero"/><path fill="#151515" d="M 236.152344 193.722656 L 278.644531 193.722656 L 278.644531 236.269531 L 236.152344 236.269531 Z M 236.152344 193.722656 " fill-opacity="1" fill-rule="nonzero"/><path fill="#151515" d="M 278.644531 236.269531 L 321.136719 236.269531 L 321.136719 278.8125 L 278.644531 278.8125 Z M 278.644531 236.269531 " fill-opacity="1" fill-rule="nonzero"/><path fill="#151515" d="M 321.003906 236.269531 L 363.496094 236.269531 L 363.496094 278.8125 L 321.003906 278.8125 Z M 321.003906 236.269531 " fill-opacity="1" fill-rule="nonzero"/><path fill="#151515" d="M 321.003906 321.222656 L 363.496094 321.222656 L 363.496094 363.769531 L 321.003906 363.769531 Z M 321.003906 321.222656 " fill-opacity="1" fill-rule="nonzero"/><path fill="#151515" d="M 321.003906 278.8125 L 363.496094 278.8125 L 363.496094 321.355469 L 321.003906 321.355469 Z M 321.003906 278.8125 " fill-opacity="1" fill-rule="nonzero"/><path fill="#151515" d="M 278.644531 363.769531 L 321.136719 363.769531 L 321.136719 406.3125 L 278.644531 406.3125 Z M 278.644531 363.769531 " fill-opacity="1" fill-rule="nonzero"/><path fill="#151515" d="M 278.644531 321.222656 L 321.136719 321.222656 L 321.136719 363.769531 L 278.644531 363.769531 Z M 278.644531 321.222656 " fill-opacity="1" fill-rule="nonzero"/><g clip-path="url(#b8a92f5253)"><path fill="#151515" d="M 236.152344 406.3125 L 278.644531 406.3125 L 278.644531 448.855469 L 236.152344 448.855469 Z M 236.152344 406.3125 " fill-opacity="1" fill-rule="nonzero"/></g><path fill="#151515" d="M 236.152344 363.769531 L 278.644531 363.769531 L 278.644531 406.3125 L 236.152344 406.3125 Z M 236.152344 363.769531 " fill-opacity="1" fill-rule="nonzero"/><g clip-path="url(#6ff02c95e1)"><path fill="#151515" d="M 193.660156 406.3125 L 236.152344 406.3125 L 236.152344 448.855469 L 193.660156 448.855469 Z M 193.660156 406.3125 " fill-opacity="1" fill-rule="nonzero"/></g><path fill="#151515" d="M 363.496094 278.8125 L 405.988281 278.8125 L 405.988281 321.355469 L 363.496094 321.355469 Z M 363.496094 278.8125 " fill-opacity="1" fill-rule="nonzero"/><g clip-path="url(#13e66ca993)"><path fill="#151515" d="M 193.660156 151.3125 L 236.152344 151.3125 L 236.152344 193.855469 L 193.660156 193.855469 Z M 193.660156 151.3125 " fill-opacity="1" fill-rule="nonzero"/></g><g clip-path="url(#44eaa22603)"><path fill="#151515" d="M 405.988281 151.3125 L 448.480469 151.3125 L 448.480469 193.855469 L 405.988281 193.855469 Z M 405.988281 151.3125 " fill-opacity="1" fill-rule="nonzero"/></g><path fill="#151515" d="M 448.347656 193.722656 L 490.839844 193.722656 L 490.839844 236.269531 L 448.347656 236.269531 Z M 448.347656 193.722656 " fill-opacity="1" fill-rule="nonzero"/><path fill="#151515" d="M 405.988281 193.722656 L 448.480469 193.722656 L 448.480469 236.269531 L 405.988281 236.269531 Z M 405.988281 193.722656 " fill-opacity="1" fill-rule="nonzero"/><path fill="#151515" d="M 448.347656 236.269531 L 490.839844 236.269531 L 490.839844 278.8125 L 448.347656 278.8125 Z M 448.347656 236.269531 " fill-opacity="1" fill-rule="nonzero"/><path fill="#151515" d="M 490.839844 236.269531 L 533.332031 236.269531 L 533.332031 278.8125 L 490.839844 278.8125 Z M 490.839844 236.269531 " fill-opacity="1" fill-rule="nonzero"/><path fill="#151515" d="M 490.839844 321.222656 L 533.332031 321.222656 L 533.332031 363.769531 L 490.839844 363.769531 Z M 490.839844 321.222656 " fill-opacity="1" fill-rule="nonzero"/><path fill="#151515" d="M 490.839844 278.8125 L 533.332031 278.8125 L 533.332031 321.355469 L 490.839844 321.355469 Z M 490.839844 278.8125 " fill-opacity="1" fill-rule="nonzero"/><path fill="#151515" d="M 448.347656 363.769531 L 490.839844 363.769531 L 490.839844 406.3125 L 448.347656 406.3125 Z M 448.347656 363.769531 " fill-opacity="1" fill-rule="nonzero"/><path fill="#151515" d="M 448.347656 321.222656 L 490.839844 321.222656 L 490.839844 363.769531 L 448.347656 363.769531 Z M 448.347656 321.222656 " fill-opacity="1" fill-rule="nonzero"/><g clip-path="url(#8b610260d4)"><path fill="#151515" d="M 405.988281 406.3125 L 448.480469 406.3125 L 448.480469 448.855469 L 405.988281 448.855469 Z M 405.988281 406.3125 " fill-opacity="1" fill-rule="nonzero"/></g><path fill="#151515" d="M 405.988281 363.769531 L 448.480469 363.769531 L 448.480469 406.3125 L 405.988281 406.3125 Z M 405.988281 363.769531 " fill-opacity="1" fill-rule="nonzero"/><g clip-path="url(#ad54eacf2d)"><path fill="#151515" d="M 363.496094 406.3125 L 405.988281 406.3125 L 405.988281 448.855469 L 363.496094 448.855469 Z M 363.496094 406.3125 " fill-opacity="1" fill-rule="nonzero"/></g><g clip-path="url(#da348947c1)"><path fill="#151515" d="M 533.332031 278.8125 L 575.824219 278.8125 L 575.824219 321.355469 L 533.332031 321.355469 Z M 533.332031 278.8125 " fill-opacity="1" fill-rule="nonzero"/></g><g clip-path="url(#ffe906ae49)"><path fill="#151515" d="M 363.496094 151.3125 L 405.988281 151.3125 L 405.988281 193.855469 L 363.496094 193.855469 Z M 363.496094 151.3125 " fill-opacity="1" fill-rule="nonzero"/></g></svg>