<svg xmlns="http://www.w3.org/2000/svg" xmlns:xlink="http://www.w3.org/1999/xlink" width="64" zoomAndPan="magnify" viewBox="0 0 48 48" height="64" preserveAspectRatio="xMidYMid meet" version="1.0"><defs><clipPath id="57bce00de1"><path d="M 35 8.148438 L 44.386719 8.148438 L 44.386719 16 L 35 16 Z M 35 8.148438 " clip-rule="nonzero"/></clipPath><clipPath id="911def94ba"><path d="M 19 8.148438 L 29 8.148438 L 29 16 L 19 16 Z M 19 8.148438 " clip-rule="nonzero"/></clipPath><clipPath id="e0bfd790b3"><path d="M 3.976562 8.148438 L 14 8.148438 L 14 16 L 3.976562 16 Z M 3.976562 8.148438 " clip-rule="nonzero"/></clipPath></defs><path fill="#000000" d="M 33.503906 23.574219 L 25.742188 23.574219 L 27.28125 15.878906 L 35.066406 15.878906 Z M 33.503906 23.574219 " fill-opacity="1" fill-rule="nonzero"/><path fill="#000000" d="M 17.957031 23.574219 L 10.199219 23.574219 L 11.734375 15.878906 L 19.519531 15.878906 Z M 17.957031 23.574219 " fill-opacity="1" fill-rule="nonzero"/><path fill="#000000" d="M 30.378906 38.96875 L 22.617188 38.96875 L 24.179688 31.269531 L 31.941406 31.269531 Z M 30.378906 38.96875 " fill-opacity="1" fill-rule="nonzero"/><path fill="#000000" d="M 39.726562 31.269531 L 31.941406 31.269531 L 33.503906 23.574219 L 41.261719 23.574219 Z M 39.726562 31.269531 " fill-opacity="1" fill-rule="nonzero"/><g clip-path="url(#57bce00de1)"><path fill="#000000" d="M 42.824219 15.878906 L 35.066406 15.878906 L 36.628906 8.183594 L 44.386719 8.183594 Z M 42.824219 15.878906 " fill-opacity="1" fill-rule="nonzero"/></g><g clip-path="url(#911def94ba)"><path fill="#000000" d="M 27.28125 15.878906 L 19.519531 15.878906 L 21.082031 8.183594 L 28.84375 8.183594 Z M 27.28125 15.878906 " fill-opacity="1" fill-rule="nonzero"/></g><g clip-path="url(#e0bfd790b3)"><path fill="#000000" d="M 11.734375 15.878906 L 3.976562 15.878906 L 5.539062 8.183594 L 13.296875 8.183594 Z M 11.734375 15.878906 " fill-opacity="1" fill-rule="nonzero"/></g></svg>