<svg xmlns="http://www.w3.org/2000/svg" xmlns:xlink="http://www.w3.org/1999/xlink" width="800" zoomAndPan="magnify" viewBox="0 0 600 599.999999" height="800" preserveAspectRatio="xMidYMid meet" version="1.0"><defs><clipPath id="dd4a5855c6"><path d="M 60 193.527344 L 540 193.527344 L 540 529 L 60 529 Z M 60 193.527344 " clip-rule="nonzero"/></clipPath><clipPath id="bdf17b6cd7"><path d="M 60 246 L 540 246 L 540 540.027344 L 60 540.027344 Z M 60 246 " clip-rule="nonzero"/></clipPath><clipPath id="37c5c76f5c"><path d="M 378.910156 103.03125 L 559.660156 103.03125 L 559.660156 283.78125 L 378.910156 283.78125 Z M 378.910156 103.03125 " clip-rule="nonzero"/></clipPath></defs><g clip-path="url(#dd4a5855c6)"><path fill="#000000" d="M 113.582031 528.613281 L 486.417969 528.613281 L 513.078125 513.367188 L 539.734375 486.703125 L 539.734375 220.1875 L 513.078125 220.1875 L 513.078125 193.527344 L 86.921875 193.527344 L 86.921875 220.1875 L 60.265625 220.1875 L 60.265625 486.703125 L 86.921875 513.367188 Z M 113.582031 528.613281 " fill-opacity="1" fill-rule="nonzero"/></g><path fill="#f7f7f0" d="M 140.144531 273.511719 L 220.121094 273.511719 L 220.121094 300.078125 L 273.339844 300.078125 L 273.339844 326.738281 L 326.660156 326.738281 L 326.660156 300.078125 L 379.878906 300.078125 L 379.878906 273.511719 L 433.195312 273.511719 L 433.195312 246.851562 L 486.417969 246.851562 L 486.417969 220.1875 L 113.582031 220.1875 L 113.582031 246.851562 L 140.144531 246.851562 Z M 140.144531 273.511719 " fill-opacity="1" fill-rule="nonzero"/><path fill="#f7f7f0" d="M 140.144531 486.703125 L 513.078125 486.703125 L 513.078125 246.851562 L 486.417969 273.511719 L 433.195312 300.078125 L 406.539062 326.738281 L 353.316406 353.398438 L 326.660156 380.058594 L 304.027344 404.996094 L 273.339844 380.058594 L 246.683594 353.398438 L 193.460938 326.738281 L 140.144531 300.078125 L 113.582031 273.511719 L 86.921875 246.851562 L 86.921875 486.703125 Z M 140.144531 486.703125 " fill-opacity="1" fill-rule="nonzero"/><g clip-path="url(#bdf17b6cd7)"><path fill="#d1d1d1" d="M 539.734375 486.703125 L 539.734375 513.367188 L 513.078125 513.367188 L 513.078125 486.703125 Z M 513.078125 246.851562 L 486.417969 246.851562 L 486.417969 273.511719 L 513.078125 273.511719 Z M 459.855469 513.367188 L 86.921875 513.367188 L 86.921875 540.027344 L 513.269531 540.027344 L 513.269531 513.367188 Z M 486.417969 300.078125 L 486.417969 273.511719 L 433.101562 273.511719 L 433.101562 300.171875 L 486.417969 300.171875 Z M 433.195312 300.078125 L 406.539062 300.078125 L 406.539062 326.738281 L 433.195312 326.738281 Z M 406.539062 353.398438 L 406.539062 326.738281 L 353.222656 326.738281 L 353.222656 353.398438 Z M 353.316406 353.398438 L 326.660156 353.398438 L 326.660156 380.058594 L 353.316406 380.058594 Z M 300 406.722656 L 326.660156 406.722656 L 326.660156 380.058594 L 273.339844 380.058594 L 273.339844 406.722656 Z M 273.339844 380.058594 L 273.339844 353.398438 L 246.683594 353.398438 L 246.683594 380.058594 Z M 220.121094 353.398438 L 246.777344 353.398438 L 246.777344 326.738281 L 193.460938 326.738281 L 193.460938 353.398438 Z M 166.804688 326.738281 L 193.460938 326.738281 L 193.460938 300.078125 L 140.144531 300.078125 L 140.144531 326.738281 Z M 140.144531 300.078125 L 140.144531 273.511719 L 113.582031 273.511719 L 113.582031 300.171875 L 140.144531 300.171875 Z M 113.582031 246.851562 L 86.921875 246.851562 L 86.921875 273.511719 L 113.582031 273.511719 Z M 60.265625 486.703125 L 60.265625 513.367188 L 86.921875 513.367188 L 86.921875 486.703125 Z M 60.265625 486.703125 " fill-opacity="1" fill-rule="nonzero"/></g><g clip-path="url(#37c5c76f5c)"><path fill="#ffde59" d="M 559.660156 206.316406 L 508.015625 206.316406 L 508.015625 232.136719 L 482.195312 232.136719 L 482.195312 283.78125 L 456.375 283.78125 L 456.375 232.136719 L 430.554688 232.136719 L 430.554688 206.316406 L 378.910156 206.316406 L 378.910156 180.492188 L 430.554688 180.492188 L 430.554688 154.671875 L 456.375 154.671875 L 456.375 103.03125 L 482.195312 103.03125 L 482.195312 154.671875 L 508.015625 154.671875 L 508.015625 180.492188 L 559.660156 180.492188 Z M 559.660156 206.316406 " fill-opacity="1" fill-rule="nonzero"/></g></svg>